<svg id="katman_1" data-name="katman 1" xmlns="http://www.w3.org/2000/svg" viewBox="0 0 200 200"><defs><style>.cls-1{fill:#4226ed;}.cls-2{fill:#fff;}</style></defs><rect class="cls-1" width="200" height="200" rx="25"/><path class="cls-2" d="M83.32,525.26l5.18,5.07a19.38,19.38,0,0,1-28.44,3.23L31.35,562.27l-4.63-4.64,29.19-29.19a19.37,19.37,0,0,1,32.68-20.71l-5,5.43a12.25,12.25,0,1,0-.27,12.1Z" transform="translate(0 -422.76)"/><path class="cls-2" d="M110.74,499.6h-7.86L91.66,538.27h7.61l1.62-6.48,12,.12,2.49,6.36h7.48Zm-8.23,26.2,4.61-16.2,4.61,16.2Z" transform="translate(0 -422.76)"/><path class="cls-2" d="M147.83,527.56l7.06,10.71h-8.34l-5.5-8.3h-6.43l-.08,8.3h-7.33V522.59H140.4a7.93,7.93,0,0,0,2-15.61,7.8,7.8,0,0,0-2-.26H127.21V499.6l11-.2,2.21,0h0a15.32,15.32,0,0,1,7.43,28.2Z" transform="translate(0 -422.76)"/><ellipse class="cls-2" cx="145.29" cy="519.69" rx="1.83" ry="0.49" transform="translate(-313.25 -187.55) rotate(-42.56)"/><ellipse class="cls-2" cx="145.29" cy="509.62" rx="0.49" ry="1.83" transform="translate(-328.33 -150.85) rotate(-47.44)"/><path class="cls-2" d="M132.23,519.69V509.62l6.49-1.1s5.08,5.19,0,12.3Z" transform="translate(0 -422.76)"/></svg>